<?xml version="1.0" standalone="no"?>
<!DOCTYPE svg PUBLIC "-//W3C//DTD SVG 20010904//EN"
 "http://www.w3.org/TR/2001/REC-SVG-20010904/DTD/svg10.dtd">
<svg version="1.0" xmlns="http://www.w3.org/2000/svg"
 width="900.000000pt" height="900.000000pt" viewBox="0 0 900.000000 900.000000"
 preserveAspectRatio="xMidYMid meet">
<metadata>
Created by potrace 1.14, written by Peter Selinger 2001-2017
</metadata>
<g transform="translate(0.000000,900.000000) scale(0.100000,-0.100000)"
fill="#000000" stroke="none">
<path d="M6155 8275 c-27 -7 -53 -11 -57 -9 -4 3 -26 0 -49 -6 -62 -17 -331
-60 -340 -55 -4 3 -18 1 -32 -4 -13 -5 -44 -12 -68 -14 -89 -11 -182 -28 -201
-38 -11 -6 -26 -8 -33 -5 -7 2 -29 -3 -49 -14 -20 -10 -33 -13 -30 -8 3 5 -3
4 -14 -3 -12 -7 -18 -17 -15 -23 4 -5 1 -6 -8 -1 -19 12 -49 14 -55 3 -3 -4
-14 -8 -25 -8 -10 0 -19 -6 -19 -12 0 -10 -3 -9 -9 1 -6 9 -11 10 -15 2 -4 -6
-12 -9 -17 -6 -5 4 -9 1 -9 -6 0 -8 -4 -8 -15 1 -13 11 -14 10 -9 -5 5 -13 4
-16 -4 -11 -7 4 -12 2 -12 -3 0 -6 -5 -11 -11 -11 -5 0 -7 5 -3 12 5 7 3 8 -5
4 -7 -5 -10 -15 -6 -24 5 -13 2 -12 -15 3 -11 10 -20 13 -20 7 0 -7 -5 -12
-11 -12 -5 0 -7 5 -3 11 3 6 -5 4 -19 -6 -24 -15 -26 -15 -36 2 -8 14 -11 15
-12 3 -1 -8 -1 -19 0 -23 1 -5 -8 -6 -19 -2 -12 4 -20 2 -20 -6 0 -9 -3 -9
-14 0 -10 8 -16 9 -21 1 -3 -6 -11 -8 -16 -5 -13 9 -11 -9 4 -24 10 -11 9 -12
-3 -5 -25 15 -60 11 -61 -6 0 -13 -1 -13 -7 0 -4 8 -15 16 -24 16 -21 2 -23
-7 -5 -25 10 -11 8 -11 -9 0 -19 11 -25 10 -40 -5 -16 -16 -18 -16 -26 -2 -5
9 -14 14 -19 11 -5 -4 -7 -10 -5 -14 3 -4 -8 -7 -24 -7 -21 0 -27 3 -22 15 5
14 4 14 -12 2 -16 -14 -16 -15 3 -25 19 -11 19 -12 -11 -25 -27 -12 -33 -12
-42 1 -14 18 -54 29 -62 17 -3 -5 -10 -7 -15 -4 -14 9 -11 -5 5 -21 8 -8 21
-14 28 -15 7 0 -3 -7 -22 -16 -203 -87 -277 -116 -299 -117 -14 -1 -25 -6 -24
-13 1 -6 -21 -22 -50 -36 -44 -21 -53 -22 -56 -9 -4 17 19 92 28 92 3 0 7 25
9 54 2 47 -1 57 -20 70 -13 10 -26 12 -31 7 -5 -5 -16 -7 -25 -4 -11 5 -13 3
-7 -7 6 -10 4 -12 -7 -7 -10 3 -25 -4 -39 -19 -23 -25 -46 -33 -33 -12 5 7 3
8 -7 2 -8 -5 -17 -9 -21 -10 -21 -4 -22 -6 -5 -13 15 -6 11 -12 -29 -41 -26
-19 -56 -33 -67 -33 -12 1 -21 -6 -24 -18 -5 -17 -147 -131 -274 -219 -48 -33
-218 -172 -293 -239 -94 -84 -346 -341 -346 -353 0 -6 -20 -39 -45 -74 -25
-34 -45 -66 -45 -70 0 -4 -20 -40 -45 -80 -25 -39 -45 -75 -45 -79 0 -5 -17
-38 -37 -74 -21 -36 -38 -70 -38 -76 -1 -18 -35 -89 -51 -106 -8 -9 -14 -20
-12 -25 1 -5 -17 -49 -40 -97 -24 -48 -40 -92 -37 -97 3 -6 2 -10 -4 -10 -5 0
-12 -13 -16 -30 -4 -16 -10 -30 -14 -30 -4 0 -14 -18 -21 -40 -7 -22 -18 -40
-23 -40 -5 0 -4 -7 3 -15 7 -9 8 -15 2 -15 -11 0 -54 -35 -107 -87 -18 -18
-40 -33 -50 -33 -9 0 -14 -4 -10 -9 3 -5 -9 -31 -27 -58 -37 -55 -258 -316
-296 -350 -14 -13 -22 -23 -18 -23 4 0 -8 -19 -27 -42 -33 -42 -64 -110 -48
-105 14 3 92 -63 86 -73 -17 -28 -22 -132 -9 -215 4 -22 7 -62 8 -90 1 -38 5
-50 18 -53 9 -2 19 -10 22 -18 6 -16 -17 -30 -33 -19 -6 3 -9 0 -7 -7 3 -7 7
-37 10 -66 2 -29 14 -73 26 -97 19 -39 25 -44 46 -39 18 5 24 2 24 -10 0 -9
-8 -16 -20 -16 l-20 0 20 -40 c13 -26 27 -40 40 -40 15 0 20 -7 20 -25 0 -14
7 -37 16 -50 9 -14 12 -25 8 -25 -5 0 -2 -6 7 -13 8 -7 25 -34 38 -62 43 -95
80 -160 89 -158 6 1 8 -5 6 -15 -6 -22 8 -43 32 -46 11 -2 19 -11 19 -22 0
-11 7 -19 15 -18 9 1 17 -7 17 -18 1 -10 26 -43 55 -74 29 -31 68 -72 85 -92
18 -20 38 -41 44 -47 32 -30 86 -84 102 -103 35 -45 25 -50 -95 -54 -68 -2
-116 1 -120 7 -5 6 -8 4 -8 -5 0 -20 -97 -53 -103 -36 -3 8 -36 13 -93 14 -93
2 -176 -14 -220 -43 -14 -9 -51 -17 -87 -19 -122 -5 -269 -100 -314 -203 -36
-82 -40 -93 -42 -129 -1 -19 -5 -25 -16 -20 -8 3 -15 2 -15 -2 0 -5 -14 -22
-30 -39 -22 -22 -27 -33 -18 -37 7 -4 3 -4 -9 -2 -26 5 -31 -9 -7 -18 14 -5
13 -9 -2 -36 -11 -18 -26 -29 -38 -29 -27 1 -54 -5 -62 -13 -3 -4 -13 -4 -21
-1 -8 3 -18 2 -22 -3 -5 -8 -309 -55 -343 -54 -5 0 -8 9 -8 19 0 27 -15 34
-30 15 -10 -11 -10 -18 -2 -26 9 -9 4 -15 -20 -22 -25 -8 -35 -19 -43 -46 -5
-19 -14 -41 -18 -48 -5 -7 -6 -24 -3 -37 4 -14 -10 -159 -29 -322 -20 -164
-40 -336 -46 -383 -6 -47 -12 -109 -13 -138 -2 -29 -6 -56 -10 -59 -12 -12 -6
-34 7 -27 7 5 6 0 -3 -11 -11 -14 -12 -19 -2 -22 6 -3 12 -9 12 -14 0 -6 -4
-8 -8 -5 -5 3 -9 -1 -9 -9 0 -8 3 -12 7 -10 4 2 7 -1 7 -8 0 -7 4 -21 9 -32 7
-17 6 -18 -8 -5 -9 8 -14 18 -11 23 2 4 0 7 -6 7 -5 0 -9 -9 -8 -19 0 -11 5
-17 9 -15 4 3 8 -2 8 -11 0 -10 -5 -13 -12 -9 -7 4 -8 3 -4 -4 4 -7 1 -12 -6
-12 -10 0 -10 -2 1 -9 8 -5 9 -11 3 -15 -6 -4 -9 -16 -7 -28 3 -12 0 -27 -5
-33 -5 -6 -8 -22 -5 -35 2 -12 1 -28 -3 -34 -3 -6 -8 -22 -9 -36 -3 -20 -1
-22 7 -10 15 23 12 7 -6 -28 -9 -20 -14 -49 -11 -76 2 -25 0 -43 -5 -40 -4 3
-9 -10 -9 -28 -1 -18 -2 -49 -4 -68 -1 -19 0 -41 3 -48 9 -24 49 -31 113 -21
102 16 168 18 162 3 -2 -6 1 -15 8 -20 8 -4 10 -3 5 4 -4 7 -1 12 9 12 11 0
15 5 11 16 -3 8 -2 12 4 9 5 -3 18 -1 28 4 22 12 64 3 55 -12 -3 -5 -1 -7 5
-3 5 3 13 0 15 -6 4 -10 6 -10 6 0 1 6 8 12 16 12 13 0 14 4 4 23 -12 22 -12
22 10 3 16 -15 21 -16 21 -5 0 8 9 15 20 16 11 1 18 -2 15 -8 -4 -5 -1 -9 4
-9 6 0 11 4 11 8 0 5 6 9 13 10 65 7 175 27 172 31 -2 4 13 6 33 5 20 0 41 1
46 4 5 3 28 6 52 8 45 3 177 21 227 30 27 6 28 5 17 -16 -10 -20 -10 -21 8
-16 24 8 74 16 122 21 19 2 55 10 79 18 25 9 48 14 53 11 4 -3 8 2 8 10 0 10
9 15 28 14 15 0 38 3 51 7 18 6 22 5 16 -4 -6 -10 -3 -11 12 -2 11 6 23 7 27
4 3 -3 6 -1 6 5 0 7 5 12 11 12 5 0 7 -4 4 -10 -4 -7 3 -7 20 0 15 6 33 6 41
2 8 -5 56 -2 107 5 51 7 111 14 134 16 24 2 45 6 48 9 3 3 19 4 35 2 18 -2 30
1 30 8 0 6 3 9 6 6 3 -4 19 -2 35 2 18 5 29 5 29 -1 0 -6 8 -5 20 1 11 6 24 9
28 6 5 -3 21 4 38 15 34 22 45 24 38 5 -6 -15 11 -14 78 3 21 5 58 8 82 7 25
-1 40 2 33 6 -7 4 5 8 28 9 22 0 54 3 70 6 17 2 43 4 59 4 16 0 35 4 41 9 6 5
21 8 33 5 12 -2 24 1 28 6 3 5 20 9 37 8 18 0 50 2 72 6 22 4 58 9 80 12 79 9
100 11 100 13 0 5 46 12 86 14 26 1 54 8 64 16 9 8 34 13 57 11 47 -2 81 7 73
20 -4 5 -1 9 4 9 6 0 11 -5 11 -10 0 -7 6 -7 18 -1 10 5 24 6 32 1 13 -8 59 6
70 22 3 4 23 3 43 -2 30 -6 37 -5 33 5 -3 10 5 13 30 11 19 -2 34 1 34 5 0 13
17 11 32 -4 22 -20 38 -19 38 3 0 16 5 19 29 14 16 -4 32 -1 35 5 10 15 27 14
24 -1 -4 -17 24 -16 44 1 22 19 61 22 54 5 -3 -7 0 -16 6 -20 7 -5 8 -2 3 6
-6 10 -4 12 8 7 9 -3 19 -2 22 4 4 5 11 7 16 3 5 -3 16 0 24 6 12 10 15 10 15
0 0 -10 3 -10 15 0 8 7 22 10 30 6 8 -3 15 -2 15 2 0 4 17 8 38 9 82 5 122 14
122 29 0 8 5 14 11 14 5 0 8 -3 6 -8 -10 -15 91 -6 107 11 18 18 68 14 95 -7
11 -8 13 -8 8 0 -7 13 13 24 44 24 10 0 19 5 19 10 0 7 7 7 20 0 22 -12 64 -4
55 9 -2 5 8 8 23 8 15 0 36 3 46 8 14 6 17 5 12 -3 -5 -8 0 -12 13 -12 12 0
21 5 21 11 0 6 7 8 16 5 9 -4 13 -2 8 5 -4 8 1 9 16 4 13 -4 40 -8 60 -9 30
-2 37 1 32 13 -4 11 0 13 16 9 14 -4 20 -2 16 4 -4 6 -1 8 7 6 8 -3 13 -10 12
-15 -1 -5 12 -9 28 -8 16 0 29 3 29 6 0 3 11 4 25 1 14 -2 31 0 38 5 6 5 27 9
45 8 17 -1 32 2 32 8 0 5 11 6 26 3 14 -4 32 -2 39 4 8 6 22 10 32 9 10 -1 25
1 33 4 8 3 35 8 60 10 25 1 57 11 72 21 21 14 30 15 46 5 21 -13 57 -5 47 10
-3 6 12 8 37 6 70 -8 82 -7 93 8 8 11 27 13 78 8 5 -1 5 -6 1 -12 -3 -6 4 -5
16 3 64 38 64 38 89 22 15 -10 21 -11 16 -3 -6 9 -3 10 11 5 32 -13 39 -12 36
6 -2 12 3 16 17 13 12 -2 23 0 26 6 4 5 11 9 17 9 6 0 3 -10 -8 -22 -12 -13
-13 -18 -4 -13 19 12 35 15 90 20 25 2 65 9 90 15 25 6 54 11 65 10 11 -1 25
-1 30 0 48 4 91 9 95 10 3 1 16 3 30 5 14 1 27 3 30 5 3 1 16 3 30 4 14 0 30
4 35 7 6 3 21 4 35 3 14 -1 31 3 38 9 8 6 34 10 59 8 36 -2 51 3 70 21 15 14
27 19 31 12 14 -21 55 -23 79 -4 25 19 58 17 46 -4 -5 -8 -3 -8 8 0 8 7 34 14
59 17 50 5 82 16 76 26 -5 7 903 135 910 128 3 -3 -4 -22 -15 -43 -12 -21 -21
-35 -21 -31 0 4 -14 0 -30 -8 -17 -9 -28 -20 -25 -25 4 -6 8 -10 11 -10 3 0 2
5 -2 12 -5 8 -2 9 10 5 11 -4 15 -3 11 4 -4 6 -1 9 6 8 25 -4 48 12 42 29 -4
14 -3 15 6 2 7 -11 5 -20 -7 -35 -14 -16 -14 -17 -1 -7 9 6 20 8 24 4 5 -4 5
-1 1 6 -5 8 0 12 16 13 15 1 18 3 6 6 -9 2 -19 11 -22 19 -4 10 -2 12 6 8 6
-4 17 1 25 11 7 11 13 14 13 8 0 -7 -5 -15 -11 -19 -8 -4 -7 -9 2 -15 8 -5 20
-3 29 5 8 8 23 12 33 11 9 -2 15 1 11 6 -3 5 5 13 18 18 13 6 17 10 10 10 -7
1 -10 5 -7 11 3 6 -1 7 -9 4 -9 -3 -13 -11 -9 -17 4 -6 1 -7 -7 -2 -9 6 -11 4
-5 -6 5 -8 4 -11 0 -6 -5 4 -18 -1 -29 -10 -12 -10 -16 -11 -9 -4 10 11 9 17
-5 28 -15 13 -15 13 5 4 14 -7 24 -8 28 -1 6 10 -1 14 -18 11 -5 -1 -5 4 -2
10 5 7 11 7 17 1 11 -11 41 -5 34 7 -3 4 4 7 14 7 10 0 16 -6 13 -13 -3 -7 0
-13 7 -13 6 0 9 4 5 9 -3 5 -1 12 4 15 5 3 8 26 7 51 -1 25 2 45 6 45 4 0 7 8
7 18 -1 160 4 241 14 235 9 -5 9 -3 1 8 -15 20 -26 51 -15 45 5 -3 11 4 14 15
4 16 2 19 -11 14 -13 -5 -12 -2 3 15 16 18 17 23 5 30 -8 5 -11 12 -7 16 4 4
2 13 -4 20 -7 8 -6 14 2 20 8 5 9 3 4 -6 -5 -9 -4 -11 4 -6 8 6 9 12 2 20 -7
9 -7 17 2 26 10 10 9 11 -3 5 -12 -6 -13 -5 -2 6 15 16 16 40 1 36 -22 -4 -30
55 -13 97 10 27 12 41 4 46 -16 10 -1 72 17 66 9 -4 11 -2 7 6 -7 11 -7 43 1
126 1 17 -1 32 -6 32 -5 0 -9 5 -9 11 0 6 7 8 18 4 14 -5 15 -4 5 6 -16 16
-17 106 -1 111 8 3 9 12 1 34 -7 20 -7 37 0 54 6 14 12 63 13 110 1 47 4 96 7
108 5 18 3 22 -8 18 -10 -3 -12 0 -8 11 5 12 3 14 -8 8 -12 -7 -12 -5 -1 6 11
12 14 12 22 -1 6 -10 8 -3 8 21 0 19 1 36 2 39 7 15 5 78 -3 73 -14 -9 -3 31
13 45 8 7 11 12 5 11 -23 -3 -36 2 -30 10 3 6 -4 15 -15 21 -11 6 -18 15 -15
20 3 6 -1 7 -10 4 -14 -6 -13 -9 7 -23 23 -16 35 -41 20 -41 -12 0 -34 17 -33
26 0 5 -8 9 -18 9 -11 0 -23 3 -27 8 -15 15 -24 6 -18 -17 4 -16 1 -25 -12
-30 -14 -5 -15 -4 -5 8 14 16 6 40 -10 31 -5 -4 -9 -1 -9 4 0 6 5 11 12 11 6
0 8 3 5 6 -4 4 -12 2 -19 -3 -7 -6 -21 -9 -31 -8 -9 2 -15 -1 -11 -6 3 -5 0
-9 -6 -9 -6 0 -9 -4 -6 -9 3 -4 -6 -7 -20 -5 -17 1 -24 -2 -21 -10 3 -7 -1
-13 -8 -13 -10 0 -11 5 -4 19 6 10 13 16 17 14 5 -3 14 -1 21 3 9 6 10 11 2
15 -6 4 -11 3 -11 -2 0 -5 -20 -9 -44 -8 -31 1 -42 -2 -39 -11 3 -7 9 -11 13
-8 4 3 11 -2 14 -10 5 -13 2 -14 -16 -4 -18 10 -20 9 -15 -5 3 -8 2 -18 -2
-20 -5 -3 -8 7 -7 22 1 28 -18 37 -41 19 -7 -5 -18 -5 -24 -1 -7 4 -9 3 -6 -2
3 -5 -3 -21 -14 -34 l-20 -25 12 28 c14 31 5 48 -14 27 -10 -10 -9 -11 3 -5
13 8 13 7 0 -11 -22 -29 -24 -30 -16 -10 5 14 3 17 -10 12 -8 -3 -18 -6 -20
-6 -3 0 -2 -4 1 -10 3 -5 1 -10 -4 -10 -15 0 -14 13 2 29 10 11 9 13 -6 7 -10
-3 -23 -6 -28 -6 -6 0 -7 -4 -4 -10 4 -6 -1 -7 -10 -3 -10 3 -21 0 -26 -8 -7
-11 -9 -11 -9 -1 0 7 -5 10 -10 7 -6 -4 -7 -12 -3 -18 4 -7 -2 -5 -12 3 -17
14 -18 13 -11 -5 5 -15 4 -17 -5 -8 -12 12 -3 37 11 28 5 -3 11 -1 15 5 4 6
11 8 16 5 5 -4 9 -1 9 5 0 6 4 9 9 5 5 -3 12 -1 16 4 3 6 -5 8 -19 5 -17 -3
-26 1 -30 13 -3 11 -4 9 -3 -6 1 -15 -4 -25 -13 -26 -8 -2 -19 -4 -25 -5 -24
-6 -37 1 -31 16 6 16 0 14 -46 -18 -16 -11 -28 -16 -28 -12 0 3 -6 2 -13 -5
-10 -8 -17 -7 -25 1 -20 20 -53 20 -59 0 -4 -16 -13 -18 -55 -15 -27 1 -59 -2
-70 -8 -11 -6 -41 -12 -66 -14 -26 -1 -145 -17 -264 -34 -246 -35 -242 -35
-232 -20 4 8 0 9 -15 4 -16 -5 -21 -2 -21 10 0 12 5 15 21 10 15 -5 19 -4 15
4 -10 15 -43 14 -49 -1 -2 -7 -1 -20 4 -29 13 -26 -61 -33 -79 -8 -15 22 -42
14 -42 -12 0 -15 -7 -19 -32 -19 -31 0 -36 5 -69 70 -20 39 -33 70 -29 70 4 0
13 15 20 33 7 17 20 50 30 72 10 22 30 69 45 105 50 121 66 149 120 201 27 27
35 29 88 26 44 -3 57 -1 57 10 0 8 7 13 18 11 9 -2 16 -11 16 -21 -2 -20 7
-22 25 -4 11 10 13 9 8 -5 -4 -13 -1 -18 10 -18 9 0 30 -4 47 -9 51 -16 120
-34 131 -35 6 -1 13 -5 16 -10 4 -5 13 -5 20 0 20 12 40 14 33 3 -3 -5 -10 -6
-16 -3 -7 5 -8 2 -4 -5 5 -7 11 -10 14 -7 3 3 12 0 20 -7 13 -10 15 -9 10 5
-7 17 14 20 29 3 4 -4 2 -5 -6 0 -10 5 -12 4 -7 -4 4 -6 12 -9 17 -6 5 4 9 1
9 -6 0 -7 3 -9 6 -6 4 4 -1 18 -10 32 -9 14 -13 25 -9 25 5 0 14 -9 21 -21 7
-11 19 -18 26 -16 8 3 19 0 26 -6 10 -9 11 -9 6 1 -4 6 -2 12 3 12 6 0 11 -6
11 -12 0 -7 5 -5 11 5 6 9 14 15 18 12 5 -2 11 5 14 17 5 18 8 19 21 8 16 -12
22 -4 17 23 -1 5 3 6 8 2 7 -4 6 -14 -1 -30 -10 -23 -12 -23 -24 -7 -13 16
-13 16 -14 0 0 -16 12 -24 23 -15 2 1 12 -5 22 -13 11 -9 16 -10 11 -2 -4 6
-2 12 3 12 10 0 15 -14 12 -33 -1 -5 3 -6 8 -2 6 3 8 12 4 21 -3 9 0 14 8 12
9 -2 14 6 14 23 -1 24 2 26 37 21 42 -4 72 12 64 35 -3 8 -1 11 4 8 6 -3 10
-2 10 4 0 5 -72 225 -159 488 -88 263 -162 502 -166 531 -4 28 -11 52 -17 52
-5 0 -7 4 -3 9 3 5 1 12 -4 16 -6 3 -8 12 -5 20 4 8 -1 18 -10 21 -9 3 -13 10
-11 15 3 5 -1 19 -10 33 -11 17 -13 25 -4 28 20 7 0 48 -23 48 -12 0 -19 3
-15 6 3 3 2 17 -3 30 -5 13 -6 24 -1 24 4 0 8 7 8 15 0 8 -5 15 -11 15 -6 0
-4 5 4 10 15 10 12 11 -22 14 -15 1 -40 54 -32 67 3 5 10 6 16 3 8 -5 9 -1 5
10 -4 10 -7 25 -7 34 0 15 -1 15 -17 -1 -16 -15 -19 -12 -48 56 -17 40 -39 88
-47 107 -24 54 -28 70 -17 70 6 0 7 5 4 10 -3 6 -1 10 5 10 6 0 8 5 5 10 -4 6
-3 16 2 23 19 26 9 41 -27 40 -29 0 -36 4 -37 20 -1 11 -6 23 -11 26 -14 9 6
54 20 48 7 -2 20 2 29 10 21 18 82 36 73 21 -4 -6 -1 -9 7 -6 8 3 20 -2 26
-11 11 -14 14 -14 23 -1 7 11 10 11 10 2 0 -13 68 -10 92 4 7 5 8 3 3 -6 -6
-10 -3 -12 13 -8 12 4 25 1 29 -4 4 -7 1 -8 -7 -3 -9 5 -11 4 -6 -3 4 -6 26
-11 50 -10 36 0 42 3 42 22 -1 18 4 20 30 18 27 -3 32 1 38 24 5 17 3 30 -5
34 -8 6 -8 9 2 13 9 3 6 6 -6 6 -11 1 -27 11 -35 22 -8 12 -21 28 -28 35 -11
12 -11 14 0 14 9 0 10 3 2 8 -6 4 -11 23 -10 43 1 32 -2 36 -21 34 -15 -1 -45
22 -104 81 -45 46 -76 84 -68 85 8 0 0 7 -17 14 -36 16 -117 103 -108 116 3 5
2 9 -3 8 -15 -4 -66 21 -104 52 -21 17 -64 44 -96 61 -32 17 -65 36 -73 43 -8
7 -88 47 -177 88 -127 61 -327 135 -461 173 -15 4 -8 42 16 89 9 17 16 62 18
106 2 67 8 88 53 187 28 61 51 119 51 127 0 31 -20 55 -47 55 -14 0 -32 8 -39
18 -9 11 -13 13 -14 4 0 -7 -4 -11 -9 -8 -15 9 -42 -5 -34 -18 4 -6 0 -6 -9 2
-18 15 -27 6 -22 -21 1 -12 -2 -17 -11 -13 -7 2 -16 -3 -20 -12 -5 -14 -7 -14
-15 -2 -7 10 -10 11 -10 3 0 -7 -5 -13 -11 -13 -5 0 -7 6 -3 13 5 7 0 6 -11
-3 -14 -11 -17 -12 -11 -1 6 9 5 12 -5 9 -8 -3 -19 5 -25 16 -6 12 -16 20 -23
18 -8 -1 -6 6 4 21 8 13 12 27 8 32 -5 4 -3 5 4 1 7 -3 14 2 18 14 4 11 11 17
17 14 8 -5 9 -1 4 12 -4 10 -4 15 0 11 4 -4 14 -1 22 6 13 10 14 9 7 -2 -5
-10 -4 -12 3 -7 7 4 12 16 12 27 0 12 12 27 30 37 16 9 30 22 30 28 0 7 12 15
27 18 24 7 25 8 10 24 -16 15 -14 20 30 64 54 54 60 95 21 128 -27 23 -28 23
-93 5z m-1665 -355 c0 -5 -5 -10 -11 -10 -5 0 -7 5 -4 10 3 6 8 10 11 10 2 0
4 -4 4 -10z m35 -20 c3 -6 -1 -7 -9 -4 -18 7 -21 14 -7 14 6 0 13 -4 16 -10z
m2847 -3568 c-7 -2 -9 -9 -5 -15 3 -7 2 -8 -2 -4 -16 14 -14 36 3 29 10 -4 12
-7 4 -10z m48 -10 c0 -4 -9 -8 -19 -8 -11 0 -17 4 -15 8 3 4 12 8 20 8 8 0 14
-4 14 -8z m114 0 c2 -4 -4 -8 -14 -8 -10 0 -16 4 -14 8 3 4 9 8 14 8 5 0 11
-4 14 -8z m711 -314 c5 4 5 2 2 -4 -7 -12 -57 -16 -57 -4 0 14 13 19 30 10 10
-5 21 -6 25 -2z m60 -9 c3 6 12 11 18 11 7 0 6 -4 -3 -10 -13 -9 -13 -10 0
-10 13 0 13 -2 0 -9 -17 -12 -27 -7 -40 22 -10 20 -10 21 3 4 10 -12 17 -14
22 -8z m-271 -31 c-8 -15 -17 -28 -20 -28 -2 0 0 9 6 19 17 33 11 36 -17 10
l-28 -24 23 26 c12 14 29 26 37 26 12 0 12 -4 -1 -29z m-305 -2 c11 -14 6 -15
-27 -7 -4 1 8 21 12 21 2 0 9 -6 15 -14z m648 -1 c0 -7 -6 -12 -14 -12 -7 0
-13 4 -13 9 0 5 -5 6 -12 2 -6 -4 -8 -3 -5 2 8 14 44 12 44 -1z m-87 -3 c0 -5
-7 -9 -15 -9 -8 0 -12 4 -9 9 3 4 9 8 15 8 5 0 9 -4 9 -8z m50 -18 c0 -2 -7
-4 -15 -4 -8 0 -15 4 -15 10 0 5 7 7 15 4 8 -4 15 -8 15 -10z m-750 -4 c0 -5
-2 -10 -4 -10 -3 0 -8 5 -11 10 -3 6 -1 10 4 10 6 0 11 -4 11 -10z m790 -15
c11 -14 7 -19 -12 -16 -10 1 -10 -3 -2 -24 5 -13 8 -14 15 -3 6 9 9 9 9 1 0
-6 -4 -14 -10 -18 -5 -3 -7 -12 -4 -19 3 -7 -6 -20 -20 -30 -21 -13 -24 -14
-20 -1 4 8 12 15 20 15 8 0 14 5 14 10 0 6 -6 10 -13 10 -7 0 -18 9 -25 20 -7
11 -8 20 -3 20 5 0 11 -7 15 -15 3 -8 10 -15 17 -15 6 0 2 15 -10 36 -12 19
-17 32 -11 29 5 -3 10 -1 10 4 0 16 16 13 30 -4z m-50 -19 c0 -2 -9 -6 -20 -9
-11 -3 -18 -1 -14 4 5 9 34 13 34 5z m0 -81 c0 -7 -30 -13 -34 -7 -3 4 4 9 15
9 10 1 19 0 19 -2z m18 -66 c-3 -8 -7 -3 -11 10 -4 17 -3 21 5 13 5 -5 8 -16
6 -23z m15 -84 c4 -8 3 -16 -1 -19 -4 -3 -9 4 -9 15 -2 23 3 25 10 4z m-57
-1315 c0 -12 -4 -16 -9 -11 -5 5 -6 14 -3 20 10 15 12 14 12 -9z m-7592 -438
c3 -5 -1 -9 -9 -9 -8 0 -12 4 -9 9 3 4 7 8 9 8 2 0 6 -4 9 -8z m-17 -148 c-3
-3 -12 -4 -19 -1 -8 3 -5 6 6 6 11 1 17 -2 13 -5z m-5 -32 c-7 -2 -10 -7 -8
-11 3 -4 -1 -8 -8 -8 -11 0 -14 14 -7 34 1 1 9 -1 18 -4 11 -4 13 -8 5 -11z
m-22 -47 c-10 -12 -10 -15 0 -15 8 0 11 -3 7 -6 -3 -3 -11 -3 -17 1 -8 5 -8
11 1 21 6 8 14 14 16 14 3 0 0 -7 -7 -15z m-7 -80 c-3 -9 -8 -14 -10 -11 -3 3
-2 9 2 15 9 16 15 13 8 -4z m-13 -109 c0 -3 -4 -8 -10 -11 -5 -3 -10 -1 -10 4
0 6 5 11 10 11 6 0 10 -2 10 -4z"/>
<path d="M8356 3922 c-3 -5 1 -9 9 -9 8 0 12 4 9 9 -3 4 -7 8 -9 8 -2 0 -6 -4
-9 -8z"/>
<path d="M4615 7960 c-3 -5 -1 -10 4 -10 6 0 11 5 11 10 0 6 -2 10 -4 10 -3 0
-8 -4 -11 -10z"/>
<path d="M4076 7941 c-11 -17 28 -39 52 -30 21 8 22 11 8 24 -16 16 -52 20
-60 6z"/>
<path d="M4532 7931 c7 -9 14 -18 15 -20 2 -2 3 5 3 16 0 11 -7 20 -15 20 -12
0 -12 -3 -3 -16z"/>
<path d="M4413 7904 c4 -4 -9 -15 -29 -24 -39 -19 -31 -37 11 -26 33 8 51 42
28 51 -10 3 -14 3 -10 -1z"/>
<path d="M4114 7862 c3 -5 1 -12 -6 -14 -24 -8 8 -58 37 -58 14 0 25 5 25 10
0 6 -7 10 -16 10 -23 0 -45 25 -32 38 6 6 6 12 -3 17 -7 5 -10 4 -5 -3z"/>
<path d="M4280 7835 c-7 -8 -17 -12 -23 -8 -6 3 -7 1 -3 -5 8 -13 56 4 56 20
0 13 -16 9 -30 -7z"/>
<path d="M3670 7732 c-20 -7 -39 -34 -33 -48 3 -9 15 -6 38 9 48 31 44 55 -5
39z"/>
<path d="M3556 7668 c-22 -12 -20 -28 4 -28 10 0 24 8 29 18 11 21 -5 26 -33
10z"/>
<path d="M7890 6930 c0 -5 5 -10 11 -10 5 0 7 5 4 10 -3 6 -8 10 -11 10 -2 0
-4 -4 -4 -10z"/>
<path d="M7340 6671 c0 -6 4 -13 10 -16 6 -3 7 1 4 9 -7 18 -14 21 -14 7z"/>
<path d="M7563 6352 c-7 -4 -8 -13 -4 -20 6 -10 10 -10 20 2 13 16 2 29 -16
18z"/>
<path d="M2169 6273 c-13 -16 -12 -17 4 -4 16 13 21 21 13 21 -2 0 -10 -8 -17
-17z"/>
<path d="M7632 6241 c-11 -7 -11 -9 0 -14 9 -3 15 1 15 9 0 8 -1 14 -1 14 -1
0 -7 -4 -14 -9z"/>
<path d="M2328 6063 c6 -2 18 -2 25 0 6 3 1 5 -13 5 -14 0 -19 -2 -12 -5z"/>
<path d="M1714 5993 c2 -12 -1 -24 -8 -27 -6 -2 -1 -3 11 -3 14 1 19 5 14 12
-5 5 -11 17 -15 25 -3 8 -4 5 -2 -7z"/>
<path d="M1736 6001 c-3 -5 1 -12 10 -15 22 -8 25 -4 9 11 -8 7 -16 9 -19 4z"/>
<path d="M7150 5993 c0 -11 7 -27 16 -34 15 -12 16 -11 9 11 -10 35 -25 49
-25 23z"/>
<path d="M2267 5931 c-4 -17 -3 -21 5 -13 5 5 8 16 6 23 -3 8 -7 3 -11 -10z"/>
<path d="M2190 5915 c0 -2 6 -8 13 -14 10 -8 14 -7 14 2 0 8 -6 14 -14 14 -7
0 -13 -1 -13 -2z"/>
<path d="M2172 5858 c-16 -16 -15 -35 1 -35 6 0 13 11 13 24 2 27 2 27 -14 11z"/>
<path d="M2135 5819 c-4 -6 -5 -12 -2 -15 2 -3 7 2 10 11 7 17 1 20 -8 4z"/>
<path d="M7555 4969 c-4 -5 -4 -13 -1 -16 3 -4 6 0 6 8 0 11 2 11 10 -1 6 -9
10 -10 10 -3 0 17 -17 25 -25 12z"/>
<path d="M1750 4921 c0 -6 4 -13 10 -16 6 -3 7 1 4 9 -7 18 -14 21 -14 7z"/>
<path d="M8341 4794 c0 -11 3 -14 6 -6 3 7 2 16 -1 19 -3 4 -6 -2 -5 -13z"/>
<path d="M7807 4639 c4 -13 8 -18 11 -10 2 7 -1 18 -6 23 -8 8 -9 4 -5 -13z"/>
<path d="M7686 4583 c-6 -14 -5 -15 5 -6 7 7 10 15 7 18 -3 3 -9 -2 -12 -12z"/>
<path d="M7797 4489 c7 -7 15 -10 18 -7 3 3 -2 9 -12 12 -14 6 -15 5 -6 -5z"/>
<path d="M8983 4468 c-17 -22 -26 -45 -10 -26 8 10 16 16 19 13 2 -3 5 2 5 10
0 18 -2 18 -14 3z"/>
<path d="M8981 4427 c-8 -10 -7 -14 2 -14 8 0 14 6 14 14 0 7 -1 13 -2 13 -2
0 -8 -6 -14 -13z"/>
<path d="M8985 4341 c-3 -5 -2 -12 3 -15 5 -3 9 1 9 9 0 17 -3 19 -12 6z"/>
<path d="M7430 4300 c0 -5 9 -8 20 -7 21 1 18 10 -5 13 -8 1 -15 -2 -15 -6z"/>
<path d="M8869 4283 c-13 -16 -12 -17 4 -4 16 13 21 21 13 21 -2 0 -10 -8 -17
-17z"/>
<path d="M7475 4281 c-3 -5 -2 -12 3 -15 5 -3 9 1 9 9 0 17 -3 19 -12 6z"/>
<path d="M8933 4191 c0 -11 5 -18 9 -15 4 3 5 11 1 19 -7 21 -12 19 -10 -4z"/>
<path d="M6891 4143 c0 -13 2 -14 6 -4 5 11 7 11 14 0 7 -11 9 -10 9 4 0 9 -7
17 -15 17 -8 0 -15 -8 -14 -17z"/>
<path d="M6796 4103 c-6 -14 -5 -15 5 -6 7 7 10 15 7 18 -3 3 -9 -2 -12 -12z"/>
<path d="M8946 4079 c3 -5 10 -7 15 -4 5 4 9 1 9 -4 0 -6 -5 -11 -12 -11 -6 0
-9 -3 -5 -6 3 -3 13 -2 23 4 14 8 14 11 3 18 -20 12 -40 14 -33 3z"/>
<path d="M7059 4068 c-5 -18 -6 -38 -1 -34 7 8 12 36 6 36 -2 0 -4 -1 -5 -2z"/>
<path d="M8290 4040 c0 -5 5 -10 11 -10 5 0 7 5 4 10 -3 6 -8 10 -11 10 -2 0
-4 -4 -4 -10z"/>
<path d="M6920 4027 c0 -9 2 -17 4 -17 2 0 11 -3 20 -6 18 -7 23 21 6 31 -6 4
-7 -1 -4 -12 5 -16 4 -16 -10 1 -14 17 -16 18 -16 3z"/>
<path d="M6800 3993 c0 -15 2 -16 10 -3 9 13 11 13 21 0 9 -13 10 -13 6 0 -6
22 -37 25 -37 3z"/>
<path d="M7206 3978 c3 -4 -5 -8 -18 -8 -21 0 -21 -1 -6 -16 9 -9 23 -14 32
-11 18 7 18 44 -1 44 -6 0 -10 -4 -7 -9z m9 -18 c-3 -5 -12 -10 -18 -10 -7 0
-6 4 3 10 19 12 23 12 15 0z"/>
<path d="M8981 3958 c7 -14 7 -24 -2 -36 -11 -15 -11 -15 1 -4 18 16 21 59 3
59 -9 0 -9 -5 -2 -19z"/>
<path d="M7060 3936 c0 -29 22 -39 47 -21 14 11 15 16 6 26 -7 7 -22 14 -33
16 -15 2 -20 -3 -20 -21z"/>
<path d="M8950 3940 c0 -5 5 -10 10 -10 6 0 10 5 10 10 0 6 -4 10 -10 10 -5 0
-10 -4 -10 -10z"/>
<path d="M2270 3920 c0 -5 5 -10 11 -10 5 0 7 5 4 10 -3 6 -8 10 -11 10 -2 0
-4 -4 -4 -10z"/>
<path d="M6944 3915 c-4 -9 -2 -21 4 -27 16 -16 47 -5 47 17 0 26 -42 34 -51
10z"/>
<path d="M2190 3775 c-10 -12 -10 -15 4 -15 9 0 16 7 16 15 0 8 -2 15 -4 15
-2 0 -9 -7 -16 -15z"/>
<path d="M2070 3735 c0 -9 5 -15 11 -13 6 2 11 8 11 13 0 5 -5 11 -11 13 -6 2
-11 -4 -11 -13z"/>
<path d="M1720 3644 c0 -8 5 -12 10 -9 6 4 8 11 5 16 -9 14 -15 11 -15 -7z"/>
<path d="M1600 3610 c0 -5 5 -10 10 -10 6 0 10 5 10 10 0 6 -4 10 -10 10 -5 0
-10 -4 -10 -10z"/>
<path d="M8570 3580 c0 -5 5 -10 11 -10 5 0 7 5 4 10 -3 6 -8 10 -11 10 -2 0
-4 -4 -4 -10z"/>
<path d="M1507 3464 c-11 -11 3 -24 18 -18 8 4 12 10 9 15 -6 11 -18 12 -27 3z"/>
<path d="M8464 3446 c-3 -9 -4 -23 0 -31 6 -16 26 -21 26 -6 0 5 7 17 16 25 8
9 11 16 6 16 -6 0 -17 3 -26 6 -10 4 -18 0 -22 -10z m26 -20 c0 -3 -4 -8 -10
-11 -5 -3 -10 -1 -10 4 0 6 5 11 10 11 6 0 10 -2 10 -4z"/>
<path d="M8506 3413 c-6 -14 -5 -15 5 -6 7 7 10 15 7 18 -3 3 -9 -2 -12 -12z"/>
<path d="M641 3366 c-9 -10 -8 -15 4 -20 8 -3 15 -4 15 -2 0 3 3 11 6 20 8 20
-9 21 -25 2z"/>
<path d="M1416 3311 c-3 -5 1 -11 9 -15 9 -3 15 0 15 9 0 16 -16 20 -24 6z"/>
<path d="M8513 3295 c0 -8 4 -12 9 -9 5 3 6 10 3 15 -9 13 -12 11 -12 -6z"/>
<path d="M571 3204 c0 -11 3 -14 6 -6 3 7 2 16 -1 19 -3 4 -6 -2 -5 -13z"/>
<path d="M1315 3179 c-3 -5 0 -6 8 -3 9 3 14 0 14 -8 -1 -7 3 -14 8 -16 6 -1
10 6 11 16 1 19 -31 28 -41 11z"/>
<path d="M8433 3183 c20 -5 22 -14 6 -30 -8 -8 -8 -13 0 -18 14 -8 25 19 17
40 -3 8 -13 14 -23 14 -17 -1 -17 -2 0 -6z"/>
<path d="M1216 3143 c-3 -4 -6 -12 -6 -20 0 -19 28 -16 39 5 7 14 6 18 -9 19
-10 1 -21 -1 -24 -4z"/>
<path d="M1270 3116 c0 -2 7 -7 16 -10 8 -3 12 -2 9 4 -6 10 -25 14 -25 6z"/>
<path d="M1092 3093 c2 -10 10 -18 18 -18 8 0 16 8 18 18 2 12 -3 17 -18 17
-15 0 -20 -5 -18 -17z"/>
<path d="M1310 3100 c0 -5 5 -10 10 -10 6 0 10 5 10 10 0 6 -4 10 -10 10 -5 0
-10 -4 -10 -10z"/>
<path d="M977 3065 c6 -17 25 -15 31 3 2 7 -5 12 -17 12 -14 0 -19 -5 -14 -15z"/>
<path d="M734 3009 c-3 -6 -1 -16 5 -22 9 -9 10 -7 5 7 -6 16 -4 18 14 14 12
-4 20 -2 16 3 -7 12 -31 11 -40 -2z"/>
<path d="M652 2846 c-1 -16 1 -18 8 -6 7 11 10 11 10 2 0 -7 5 -10 11 -7 14 9
7 28 -12 30 -9 2 -16 -6 -17 -19z"/>
<path d="M683 2745 c-3 -9 -3 -19 1 -22 3 -4 6 2 6 11 0 12 5 16 16 12 8 -3
12 -2 9 4 -9 15 -25 12 -32 -5z"/>
<path d="M570 2706 c0 -2 7 -7 16 -10 8 -3 12 -2 9 4 -6 10 -25 14 -25 6z"/>
<path d="M630 2588 c0 -9 -6 -19 -12 -21 -10 -4 -10 -6 0 -6 14 -1 28 26 18
36 -3 4 -6 -1 -6 -9z"/>
<path d="M631 2491 c-17 -11 -10 -45 9 -47 9 0 10 1 3 3 -7 3 -13 11 -13 19 0
15 21 15 32 -1 5 -6 8 -6 8 1 0 18 -24 34 -39 25z"/>
<path d="M560 2330 c-9 -6 -10 -10 -3 -10 6 0 15 5 18 10 8 12 4 12 -15 0z"/>
<path d="M540 2305 c0 -7 30 -13 34 -7 3 4 -4 9 -15 9 -10 1 -19 0 -19 -2z"/>
<path d="M580 2208 c0 -18 -2 -20 -10 -8 -5 8 -10 11 -10 5 0 -5 4 -16 9 -24
13 -21 43 -5 39 21 -4 30 -28 36 -28 6z"/>
<path d="M7920 2190 c-9 -6 -10 -10 -3 -10 6 0 15 5 18 10 8 12 4 12 -15 0z"/>
<path d="M7956 2188 c3 -5 10 -6 15 -3 13 9 11 12 -6 12 -8 0 -12 -4 -9 -9z"/>
<path d="M7836 2177 c-16 -12 -16 -13 3 -13 11 0 17 4 14 9 -7 12 30 4 40 -8
5 -6 7 -4 5 4 -5 19 -41 23 -62 8z"/>
<path d="M7764 2168 c-4 -6 -3 -8 4 -4 6 3 13 2 17 -4 10 -16 25 -12 25 8 0
14 -2 15 -10 2 -6 -10 -10 -11 -10 -2 0 15 -16 16 -26 0z"/>
<path d="M7715 2159 c-3 -4 -20 -6 -39 -4 -46 3 -61 -7 -35 -24 12 -7 18 -8
15 -2 -4 5 -2 12 4 16 5 3 10 1 10 -5 0 -6 5 -8 10 -5 6 3 10 0 10 -7 0 -9 3
-9 10 2 5 8 10 11 10 6 0 -6 5 -5 12 2 15 15 31 16 22 0 -4 -7 -3 -8 4 -4 6 4
9 12 6 20 -5 14 -32 17 -39 5z"/>
<path d="M7566 2143 c-3 -3 -18 -7 -33 -9 -43 -3 -43 -3 -43 -12 0 -12 41 -8
67 6 26 15 36 15 28 2 -9 -14 1 -12 13 3 8 10 6 13 -8 14 -10 1 -21 -1 -24 -4z"/>
<path d="M7450 2118 c0 -4 4 -8 9 -8 6 0 12 4 15 8 3 5 -1 9 -9 9 -8 0 -15 -4
-15 -9z"/>
<path d="M7610 2126 c0 -2 7 -7 16 -10 8 -3 12 -2 9 4 -6 10 -25 14 -25 6z"/>
<path d="M7372 2115 c3 -3 16 -8 28 -10 12 -2 20 -1 16 2 -4 4 -16 8 -28 10
-12 2 -19 1 -16 -2z"/>
<path d="M7275 2100 c-13 -6 -15 -9 -5 -9 8 0 22 4 30 9 18 12 2 12 -25 0z"/>
<path d="M7346 2102 c-3 -5 1 -9 9 -9 8 0 12 4 9 9 -3 4 -7 8 -9 8 -2 0 -6 -4
-9 -8z"/>
<path d="M597 2085 c-6 -15 10 -32 20 -21 4 3 1 6 -7 6 -10 0 -10 3 0 15 7 9
8 15 2 15 -5 0 -12 -7 -15 -15z"/>
<path d="M7226 2088 c3 -5 10 -6 15 -3 13 9 11 12 -6 12 -8 0 -12 -4 -9 -9z"/>
<path d="M7146 2079 c4 -8 30 -6 38 2 3 3 -5 5 -19 5 -13 0 -22 -3 -19 -7z"/>
<path d="M7085 2066 c-11 -7 -21 -18 -23 -25 -3 -12 0 -12 15 0 10 8 21 19 25
24 5 6 8 4 8 -5 0 -13 1 -13 10 0 6 10 10 11 10 3 0 -7 5 -13 12 -13 9 0 9 3
0 12 -16 16 -33 17 -57 4z"/>
<path d="M5386 1692 c-3 -5 1 -9 9 -9 8 0 12 4 9 9 -3 4 -7 8 -9 8 -2 0 -6 -4
-9 -8z"/>
<path d="M5275 1671 c-3 -5 -2 -12 3 -15 5 -3 9 1 9 9 0 17 -3 19 -12 6z"/>
<path d="M5025 1640 c-2 -3 7 -6 21 -6 13 0 24 3 24 7 0 9 -40 8 -45 -1z"/>
<path d="M5156 1638 c3 -5 10 -6 15 -3 13 9 11 12 -6 12 -8 0 -12 -4 -9 -9z"/>
<path d="M4930 1620 c0 -5 5 -10 11 -10 5 0 7 5 4 10 -3 6 -8 10 -11 10 -2 0
-4 -4 -4 -10z"/>
<path d="M3818 1453 c10 -4 10 -8 0 -21 -10 -12 -7 -12 15 2 15 10 27 19 27
20 0 0 -12 2 -28 2 -15 1 -21 -1 -14 -3z"/>
<path d="M1509 1283 c-13 -16 -12 -17 4 -4 9 7 17 15 17 17 0 8 -8 3 -21 -13z"/>
<path d="M2435 1270 c-18 -19 -18 -20 3 -20 24 0 38 18 25 31 -6 6 -16 2 -28
-11z"/>
</g>
</svg>
